<svg width="32" height="32" viewBox="0 0 32 32" fill="none" xmlns="http://www.w3.org/2000/svg">
<g clip-path="url(#clip0_4525_69)">
<path d="M13.0638 0.460632H13.0679V0.462443C16.6369 0.463477 19.8686 1.9111 22.2073 4.25025C24.542 6.58605 25.9884 9.81494 25.9907 13.3811H25.9925V13.3896V13.4H25.9907C25.9894 14.8372 25.7535 16.2205 25.3198 17.5103C25.2471 17.7268 25.171 17.9347 25.0929 18.1334V18.1352C24.7189 19.0818 24.2355 19.9767 23.6582 20.801L31.1801 27.5617L31.1847 27.5658L31.2253 27.6036L31.2282 27.6064C31.6529 28.0107 31.8841 28.552 31.9133 29.1013C31.9418 29.6445 31.7729 30.2001 31.4015 30.6457L31.3986 30.6498L31.3534 30.7023L31.3443 30.7114L31.3066 30.7528L31.3024 30.7582C30.8976 31.1829 30.3573 31.4136 29.8075 31.4426C29.2651 31.4713 28.709 31.3029 28.2631 30.931L28.2592 30.9281L28.2065 30.8829L28.199 30.8767L20.5057 23.9621C20.2781 24.1225 20.0458 24.2748 19.8107 24.4186C19.4918 24.6139 19.1615 24.7978 18.8245 24.9657C17.0918 25.83 15.1339 26.3163 13.064 26.3163V26.3181H13.0599V26.3163C9.49088 26.3153 6.25863 24.8676 3.91999 22.5285C1.58445 20.1927 0.138904 16.9633 0.136576 13.3982H0.134766V13.3896V13.3855H0.136576C0.137611 9.81649 1.58523 6.58424 3.92439 4.2456C6.26018 1.9111 9.48907 0.464771 13.0552 0.462443V0.460632H13.0638ZM13.0679 3.36001V3.36182H13.0638H13.0552V3.36001C10.2914 3.36182 7.78617 4.4851 5.97257 6.29792C4.15923 8.11074 3.03492 10.6185 3.03414 13.3857H3.03595V13.3899V13.3984H3.03414C3.03595 16.1623 4.15846 18.6662 5.97206 20.4803C7.78488 22.2939 10.2927 23.4182 13.0596 23.4187V23.4169H13.0638H13.0723V23.4187C15.8361 23.4169 18.3403 22.2942 20.1544 20.4808C21.9678 18.668 23.0921 16.161 23.0926 13.394H23.091V13.3899V13.3814H23.0926C23.091 10.6175 21.9675 8.1123 20.1549 6.2987C18.3421 4.4851 15.8351 3.36078 13.0679 3.36001Z" fill="black"/>
</g>
<defs>
<clipPath id="clip0_4525_69">
<rect width="32" height="32" fill="white"/>
</clipPath>
</defs>
</svg>
