<svg width="150" height="150" viewBox="0 0 150 150" xmlns="http://www.w3.org/2000/svg">
<style>
  path { fill: #181822; fill-opacity: 0.68; }
  @media (prefers-color-scheme: dark) {
    path { fill: #ffffff; fill-opacity: 1; }
  }
</style>
<path d="M60 89.6367C50.7835 85.4138 44.3809 76.1087 44.3809 65.3076C44.381 54.5066 50.7835 45.2013 60 40.9785V89.6367Z"/>
<path d="M71.2129 16.4542H71.2284V16.461C84.7155 16.4649 96.928 21.9354 105.766 30.775C114.589 39.6019 120.055 51.8038 120.063 65.2802H120.07V65.3123V65.3516H120.063C120.058 70.7827 119.167 76.0102 117.528 80.8843C117.253 81.7024 116.966 82.4881 116.67 83.239V83.2458C115.257 86.8229 113.43 90.2047 111.249 93.3197L139.674 118.868L139.691 118.884L139.845 119.027L139.856 119.037C141.46 120.565 142.334 122.61 142.444 124.686C142.552 126.739 141.914 128.839 140.51 130.523L140.499 130.538L140.329 130.736L140.294 130.771L140.152 130.927L140.136 130.948C138.606 132.553 136.564 133.424 134.487 133.534C132.437 133.642 130.336 133.006 128.651 131.601L128.636 131.59L128.437 131.419L128.408 131.395L99.3356 105.265C98.4755 105.872 97.5976 106.447 96.7092 106.991C95.5041 107.729 94.2559 108.423 92.9824 109.058C86.4345 112.324 79.0357 114.162 71.2136 114.162V114.169H71.1981V114.162C57.7109 114.158 45.4964 108.687 36.6587 99.8479C27.8328 91.021 22.3701 78.8172 22.3613 65.3448H22.3545V65.3123V65.2968H22.3613C22.3652 51.8096 27.8357 39.5951 36.6754 30.7574C45.5022 21.9354 57.7041 16.4698 71.1804 16.461V16.4542H71.2129ZM71.2284 27.4108V27.4177H71.2129H71.1804V27.4108C60.7361 27.4177 51.2689 31.6625 44.4154 38.5131C37.5628 45.3637 33.3141 54.8404 33.3111 65.2976H33.318V65.3134V65.3456H33.3111C33.318 75.7902 37.5599 85.2524 44.4134 92.1078C51.264 98.9613 60.741 103.21 71.197 103.212V103.205H71.2129H71.245V103.212C81.6893 103.205 91.1526 98.9625 98.008 92.1097C104.861 85.2592 109.109 75.7853 109.111 65.3289H109.105V65.3134V65.2813H109.111C109.105 54.8366 104.86 45.3696 98.0099 38.516C91.1594 31.6625 81.6855 27.4137 71.2284 27.4108Z"/>
<path d="M60 6.50586C32.47 11.8683 11.6904 36.1131 11.6904 65.2119C11.6906 94.3106 32.4701 118.555 60 123.917V142C60 146.418 56.4183 150 52 150H8C3.58172 150 1.04695e-07 146.418 0 142V8C7.08705e-07 3.58172 3.58172 2.2549e-07 8 0H60V6.50586Z"/>
</svg>
