<svg width="150" height="150" viewBox="0 0 150 150" fill="none" xmlns="http://www.w3.org/2000/svg">
<path fill-rule="evenodd" clip-rule="evenodd" d="M45 0C47.7614 6.44256e-07 50 2.23858 50 5V10.96C53.9872 10.0372 58.1414 9.54886 62.4092 9.54883C92.6826 9.54909 117.225 34.0908 117.226 64.3643L117.221 65.0732C117.077 76.4129 113.488 86.9218 107.455 95.6045L138.775 123.755L138.795 123.771L138.966 123.931L139.303 124.268C140.883 125.928 141.745 128.066 141.86 130.233C141.98 132.519 141.27 134.857 139.707 136.731L139.694 136.749L139.505 136.97L139.466 137.008L139.308 137.183L139.29 137.205C137.587 138.992 135.313 139.963 133 140.085C130.718 140.206 128.377 139.497 126.501 137.933L126.484 137.92L126.263 137.729L126.231 137.704L94.2676 108.976C85.2889 115.399 74.2909 119.181 62.4092 119.181L61.7012 119.176C57.6818 119.125 53.7665 118.64 50 117.769V145C50 147.761 47.7614 150 45 150H5C2.23858 150 1.40936e-07 147.761 0 145V5C2.25497e-06 2.23858 2.23858 4.02661e-08 5 0H45ZM62.4092 22.5488C39.3154 22.549 20.5941 41.2705 20.5938 64.3643C20.5938 87.4584 39.3151 106.18 62.4092 106.181C85.5032 106.18 104.226 87.4583 104.226 64.3643C104.225 41.2705 85.5029 22.5491 62.4092 22.5488Z" fill="black"/>
</svg>
